<svg width="100" height="100" viewBox="0 0 100 100" fill="none" xmlns="http://www.w3.org/2000/svg">
<g clip-path="url(#clip0_1310_413)">
<path d="M53.1732 61.3611H39.0408V71.2603H53.1732C55.9162 71.2603 58.1481 69.0398 58.1481 66.3107C58.1481 63.5817 55.9162 61.3611 53.1732 61.3611ZM53.5736 46.9108C53.5736 44.1817 51.3417 41.9612 48.5987 41.9612H39.0408V51.8603H48.5987C51.3417 51.8603 53.5736 49.6398 53.5736 46.9108ZM87.0858 53.3096H82.5965V49.9703H77.6386V33.9605H71.9482V26.2734H62.3562V20.3831H58.4377V16.0098H52.5939V17.9337H42.5249V13.2554C18.9454 13.8232 0 33.0028 0 56.6065C0 80.5662 19.5247 100 43.6153 100C67.6974 100 87.2306 80.5746 87.2306 56.6065C87.2221 55.4962 87.171 54.4029 87.0858 53.3096ZM53.1732 80.7611H48.6924V83.8291C48.6924 85.1428 47.619 86.2022 46.3072 86.2022C44.9868 86.2022 43.922 85.1343 43.922 83.8291V80.7611H41.0086V83.8291C41.0086 85.1428 39.9353 86.2022 38.6234 86.2022C37.303 86.2022 36.2382 85.1343 36.2382 83.8291V80.7611H27.8473C25.2066 80.7611 23.0684 78.6338 23.0684 76.0065C23.0684 73.3791 25.2066 71.2518 27.8473 71.2518H29.5V41.9612H27.8473C25.2066 41.9612 23.0684 39.8339 23.0684 37.2066C23.0684 34.5792 25.2066 32.4519 27.8473 32.4519H36.2382V29.3839C36.2382 28.0702 37.3115 27.0108 38.6234 27.0108C39.9438 27.0108 41.0086 28.0787 41.0086 29.3839V32.4519H43.922V29.3839C43.922 28.0702 44.9953 27.0108 46.3072 27.0108C47.6276 27.0108 48.6924 28.0787 48.6924 29.3839V32.4519C56.6573 32.5028 63.1229 38.9694 63.1229 46.9023C63.1229 49.572 62.3903 52.0637 61.121 54.2165C65.0822 56.8014 67.7059 61.251 67.7059 66.3107C67.7059 74.2775 61.1892 80.7611 53.1732 80.7611Z" fill="url(#paint0_linear_1310_413)"/>
<path d="M62.4669 3.22906H56.5039V9.16177H62.4669V3.22906Z" fill="url(#paint1_linear_1310_413)"/>
<path d="M90.3995 0H82.1279V8.22951H90.3995V0Z" fill="url(#paint2_linear_1310_413)"/>
<path d="M76.6417 9.12793H68.3701V17.3574H76.6417V9.12793Z" fill="url(#paint3_linear_1310_413)"/>
<path d="M92.6651 15.3064H86.2676V21.6713H92.6651V15.3064Z" fill="url(#paint4_linear_1310_413)"/>
<path d="M81.6592 24.4089H75.2617V30.7738H81.6592V24.4089Z" fill="url(#paint5_linear_1310_413)"/>
<path d="M88.3641 43.4105H84.8203V46.9362H88.3641V43.4105Z" fill="url(#paint6_linear_1310_413)"/>
<path d="M50.0555 7.1955H46.5117V10.7212H50.0555V7.1955Z" fill="url(#paint7_linear_1310_413)"/>
<path d="M99.9997 27.5871H89.9307V37.6049H99.9997V27.5871Z" fill="url(#paint8_linear_1310_413)"/>
</g>
<defs>
<linearGradient id="paint0_linear_1310_413" x1="14.9007" y1="23.9358" x2="70.1872" y2="91.0517" gradientUnits="userSpaceOnUse">
<stop stop-color="#6A63FF"/>
<stop offset="1" stop-color="#48D6D2"/>
</linearGradient>
<linearGradient id="paint1_linear_1310_413" x1="44.5292" y1="-11.7738" x2="103.024" y2="59.2368" gradientUnits="userSpaceOnUse">
<stop stop-color="#6A63FF"/>
<stop offset="1" stop-color="#48D6D2"/>
</linearGradient>
<linearGradient id="paint2_linear_1310_413" x1="61.4475" y1="-25.71" x2="119.942" y2="45.3002" gradientUnits="userSpaceOnUse">
<stop stop-color="#6A63FF"/>
<stop offset="1" stop-color="#48D6D2"/>
</linearGradient>
<linearGradient id="paint3_linear_1310_413" x1="48.7759" y1="-15.2721" x2="107.271" y2="55.7385" gradientUnits="userSpaceOnUse">
<stop stop-color="#6A63FF"/>
<stop offset="1" stop-color="#48D6D2"/>
</linearGradient>
<linearGradient id="paint4_linear_1310_413" x1="56.2464" y1="-21.4258" x2="114.741" y2="49.5846" gradientUnits="userSpaceOnUse">
<stop stop-color="#6A63FF"/>
<stop offset="1" stop-color="#48D6D2"/>
</linearGradient>
<linearGradient id="paint5_linear_1310_413" x1="45.2256" y1="-12.3476" x2="103.72" y2="58.6631" gradientUnits="userSpaceOnUse">
<stop stop-color="#48D6D2"/>
<stop offset="1" stop-color="#6A63FF"/>
</linearGradient>
<linearGradient id="paint6_linear_1310_413" x1="68.1833" y1="23.0512" x2="100.577" y2="62.3764" gradientUnits="userSpaceOnUse">
<stop stop-color="#E5E5E5"/>
<stop offset="1" stop-color="#48D6D2"/>
</linearGradient>
<linearGradient id="paint7_linear_1310_413" x1="29.8731" y1="-13.1628" x2="62.267" y2="26.1622" gradientUnits="userSpaceOnUse">
<stop stop-color="#48D6D2"/>
<stop offset="1" stop-color="#6A63FF"/>
</linearGradient>
<linearGradient id="paint8_linear_1310_413" x1="52.5462" y1="-18.3775" x2="111.04" y2="52.6326" gradientUnits="userSpaceOnUse">
<stop stop-color="#6A63FF"/>
<stop offset="1" stop-color="#48D6D2"/>
</linearGradient>
<clipPath id="clip0_1310_413">
<rect width="100" height="100" fill="white"/>
</clipPath>
</defs>
</svg>
