<svg width="132" height="20" viewBox="0 0 132 20" fill="none" xmlns="http://www.w3.org/2000/svg">
<path d="M8.70096 0.75L9.56699 0.25L9.69199 0.466506L10 0.288675L10.308 0.466506L10.433 0.25L11.299 0.75L11.174 0.966506L12.0401 1.46651L12.1651 1.25L13.0311 1.75L12.9061 1.96651L13.7721 2.46651L13.8971 2.25L14.7631 2.75L14.6381 2.96651L15.5042 3.46651L15.6292 3.25L16.4952 3.75L16.3702 3.96651L17.2362 4.46651L17.3612 4.25L18.2272 4.75L18.1022 4.96651L18.4103 5.14434V5.5H18.6603V6.5H18.4103V7.5H18.6603V8.5H18.4103V9.5H18.6603V10.5H18.4103V11.5H18.6603V12.5H18.4103V13.5H18.6603V14.5H18.4103V14.8557L18.1022 15.0335L18.2272 15.25L17.3612 15.75L17.2362 15.5335L16.3702 16.0335L16.4952 16.25L15.6292 16.75L15.5042 16.5335L14.6381 17.0335L14.7631 17.25L13.8971 17.75L13.7721 17.5335L12.9061 18.0335L13.0311 18.25L12.1651 18.75L12.0401 18.5335L11.174 19.0335L11.299 19.25L10.433 19.75L10.308 19.5335L10 19.7113L9.69199 19.5335L9.56699 19.75L8.70096 19.25L8.82596 19.0335L7.95994 18.5335L7.83494 18.75L6.96891 18.25L7.09391 18.0335L6.22789 17.5335L6.10289 17.75L5.23686 17.25L5.36186 17.0335L4.49583 16.5335L4.37083 16.75L3.50481 16.25L3.62981 16.0335L2.76378 15.5335L2.63878 15.75L1.77276 15.25L1.89776 15.0335L1.58975 14.8557V14.5H1.33975V13.5H1.58975V12.5H1.33975V11.5H1.58975V10.5H1.33975V9.5H1.58975V8.5H1.33975V7.5H1.58975V6.5H1.33975V5.5H1.58975V5.14434L1.89776 4.96651L1.77276 4.75L2.63878 4.25L2.76378 4.46651L3.62981 3.96651L3.50481 3.75L4.37083 3.25L4.49583 3.46651L5.36186 2.96651L5.23686 2.75L6.10289 2.25L6.22789 2.46651L7.09391 1.96651L6.96891 1.75L7.83494 1.25L7.95994 1.46651L8.82596 0.966506L8.70096 0.75Z" stroke="#48D6D2" stroke-width="0.5" stroke-dasharray="1 1"/>
<path d="M38 0L46.6603 5V15L38 20L29.3397 15V5L38 0Z" fill="#48D6D2"/>
<path d="M64.701 0.75L65.567 0.25L65.692 0.466506L66 0.288675L66.308 0.466506L66.433 0.25L67.299 0.75L67.174 0.966506L68.0401 1.46651L68.1651 1.25L69.0311 1.75L68.9061 1.96651L69.7721 2.46651L69.8971 2.25L70.7631 2.75L70.6381 2.96651L71.5042 3.46651L71.6292 3.25L72.4952 3.75L72.3702 3.96651L73.2362 4.46651L73.3612 4.25L74.2272 4.75L74.1022 4.96651L74.4103 5.14434V5.5H74.6603V6.5H74.4103V7.5H74.6603V8.5H74.4103V9.5H74.6603V10.5H74.4103V11.5H74.6603V12.5H74.4103V13.5H74.6603V14.5H74.4103V14.8557L74.1022 15.0335L74.2272 15.25L73.3612 15.75L73.2362 15.5335L72.3702 16.0335L72.4952 16.25L71.6292 16.75L71.5042 16.5335L70.6381 17.0335L70.7631 17.25L69.8971 17.75L69.7721 17.5335L68.9061 18.0335L69.0311 18.25L68.1651 18.75L68.0401 18.5335L67.174 19.0335L67.299 19.25L66.433 19.75L66.308 19.5335L66 19.7113L65.692 19.5335L65.567 19.75L64.701 19.25L64.826 19.0335L63.9599 18.5335L63.8349 18.75L62.9689 18.25L63.0939 18.0335L62.2279 17.5335L62.1029 17.75L61.2369 17.25L61.3619 17.0335L60.4958 16.5335L60.3708 16.75L59.5048 16.25L59.6298 16.0335L58.7638 15.5335L58.6388 15.75L57.7728 15.25L57.8978 15.0335L57.5897 14.8557V14.5H57.3397V13.5H57.5897V12.5H57.3397V11.5H57.5897V10.5H57.3397V9.5H57.5897V8.5H57.3397V7.5H57.5897V6.5H57.3397V5.5H57.5897V5.14434L57.8978 4.96651L57.7728 4.75L58.6388 4.25L58.7638 4.46651L59.6298 3.96651L59.5048 3.75L60.3708 3.25L60.4958 3.46651L61.3619 2.96651L61.2369 2.75L62.1029 2.25L62.2279 2.46651L63.0939 1.96651L62.9689 1.75L63.8349 1.25L63.9599 1.46651L64.826 0.966506L64.701 0.75Z" stroke="#48D6D2" stroke-width="0.5" stroke-dasharray="1 1"/>
<path d="M94 0L102.66 5V15L94 20L85.3397 15V5L94 0Z" fill="#48D6D2"/>
<path d="M120.701 0.75L121.567 0.25L121.692 0.466506L122 0.288675L122.308 0.466506L122.433 0.25L123.299 0.75L123.174 0.966506L124.04 1.46651L124.165 1.25L125.031 1.75L124.906 1.96651L125.772 2.46651L125.897 2.25L126.763 2.75L126.638 2.96651L127.504 3.46651L127.629 3.25L128.495 3.75L128.37 3.96651L129.236 4.46651L129.361 4.25L130.227 4.75L130.102 4.96651L130.41 5.14434V5.5H130.66V6.5H130.41V7.5H130.66V8.5H130.41V9.5H130.66V10.5H130.41V11.5H130.66V12.5H130.41V13.5H130.66V14.5H130.41V14.8557L130.102 15.0335L130.227 15.25L129.361 15.75L129.236 15.5335L128.37 16.0335L128.495 16.25L127.629 16.75L127.504 16.5335L126.638 17.0335L126.763 17.25L125.897 17.75L125.772 17.5335L124.906 18.0335L125.031 18.25L124.165 18.75L124.04 18.5335L123.174 19.0335L123.299 19.25L122.433 19.75L122.308 19.5335L122 19.7113L121.692 19.5335L121.567 19.75L120.701 19.25L120.826 19.0335L119.96 18.5335L119.835 18.75L118.969 18.25L119.094 18.0335L118.228 17.5335L118.103 17.75L117.237 17.25L117.362 17.0335L116.496 16.5335L116.371 16.75L115.505 16.25L115.63 16.0335L114.764 15.5335L114.639 15.75L113.773 15.25L113.898 15.0335L113.59 14.8557V14.5H113.34V13.5H113.59V12.5H113.34V11.5H113.59V10.5H113.34V9.5H113.59V8.5H113.34V7.5H113.59V6.5H113.34V5.5H113.59V5.14434L113.898 4.96651L113.773 4.75L114.639 4.25L114.764 4.46651L115.63 3.96651L115.505 3.75L116.371 3.25L116.496 3.46651L117.362 2.96651L117.237 2.75L118.103 2.25L118.228 2.46651L119.094 1.96651L118.969 1.75L119.835 1.25L119.96 1.46651L120.826 0.966506L120.701 0.75Z" stroke="#48D6D2" stroke-width="0.5" stroke-dasharray="1 1"/>
</svg>
