<svg width="30" height="30" viewBox="0 0 30 30" fill="none" xmlns="http://www.w3.org/2000/svg">
<g clip-path="url(#clip0_1337_304)">
<path d="M8.28985 0.000367463C7.84687 -0.00784659 7.41229 0.121827 7.04625 0.371445C6.6802 0.621062 6.40079 0.978281 6.24668 1.39367C6.09257 1.80906 6.07138 2.26208 6.18604 2.69004C6.30071 3.118 6.54555 3.49974 6.88669 3.78244L19.9425 14.9593L6.87863 26.1362C6.63996 26.3101 6.43996 26.5317 6.29123 26.7869C6.14249 27.042 6.04827 27.3253 6.0145 27.6187C5.98073 27.9121 6.00815 28.2093 6.09503 28.4916C6.1819 28.7739 6.32635 29.0351 6.51925 29.2587C6.71215 29.4824 6.94931 29.6636 7.21578 29.791C7.48224 29.9184 7.77222 29.9892 8.06741 29.9988C8.3626 30.0085 8.65659 29.9569 8.93083 29.8473C9.20507 29.7376 9.4536 29.5723 9.66075 29.3618L24.5955 16.5963C24.8304 16.3957 25.0189 16.1465 25.1483 15.866C25.2776 15.5855 25.3445 15.2803 25.3445 14.9714C25.3445 14.6625 25.2776 14.3573 25.1483 14.0768C25.0189 13.7962 24.8304 13.5471 24.5955 13.3465L9.66075 0.540662C9.28229 0.20373 8.79642 0.0122408 8.28985 0.000367463Z" fill="#48D6D2"/>
</g>
<defs>
<clipPath id="clip0_1337_304">
<rect width="30" height="30" fill="white"/>
</clipPath>
</defs>
</svg>
