<svg width="30" height="30" viewBox="0 0 30 30" fill="none" xmlns="http://www.w3.org/2000/svg">
<g clip-path="url(#clip0_1553_158)">
<path fill-rule="evenodd" clip-rule="evenodd" d="M0 4.14286C0 3.57454 0.225765 3.02949 0.627628 2.62763C1.02949 2.22577 1.57454 2 2.14286 2H27.8571C28.4255 2 28.9705 2.22577 29.3724 2.62763C29.7742 3.02949 30 3.57454 30 4.14286C30 4.71118 29.7742 5.25622 29.3724 5.65809C28.9705 6.05995 28.4255 6.28571 27.8571 6.28571H2.14286C1.57454 6.28571 1.02949 6.05995 0.627628 5.65809C0.225765 5.25622 0 4.71118 0 4.14286ZM0 14.8571C0 14.2888 0.225765 13.7438 0.627628 13.3419C1.02949 12.9401 1.57454 12.7143 2.14286 12.7143H15C15.5683 12.7143 16.1134 12.9401 16.5152 13.3419C16.9171 13.7438 17.1429 14.2888 17.1429 14.8571C17.1429 15.4255 16.9171 15.9705 16.5152 16.3724C16.1134 16.7742 15.5683 17 15 17H2.14286C1.57454 17 1.02949 16.7742 0.627628 16.3724C0.225765 15.9705 0 15.4255 0 14.8571ZM0 25.5714C0 25.0031 0.225765 24.4581 0.627628 24.0562C1.02949 23.6543 1.57454 23.4286 2.14286 23.4286H27.8571C28.4255 23.4286 28.9705 23.6543 29.3724 24.0562C29.7742 24.4581 30 25.0031 30 25.5714C30 26.1397 29.7742 26.6848 29.3724 27.0867C28.9705 27.4885 28.4255 27.7143 27.8571 27.7143H2.14286C1.57454 27.7143 1.02949 27.4885 0.627628 27.0867C0.225765 26.6848 0 26.1397 0 25.5714Z" fill="white"/>
</g>
<defs>
<clipPath id="clip0_1553_158">
<rect width="30" height="30" fill="white"/>
</clipPath>
</defs>
</svg>
